<svg xmlns="http://www.w3.org/2000/svg" width="512" height="512" viewBox="0 0 512 512">
  <defs>
    <linearGradient id="bg" x1="0" y1="0" x2="1" y2="1">
      <stop offset="0" stop-color="#0ea5e9"/>
      <stop offset="1" stop-color="#0369a1"/>
    </linearGradient>
  </defs>
  <rect width="512" height="512" rx="112" fill="url(#bg)"/>
  <!-- fuel pump body -->
  <g fill="none" stroke="#ffffff" stroke-width="26" stroke-linecap="round" stroke-linejoin="round">
    <path d="M150 392 V176 a32 32 0 0 1 32 -32 h96 a32 32 0 0 1 32 32 V392"/>
    <line x1="120" y1="392" x2="340" y2="392"/>
    <line x1="150" y1="236" x2="310" y2="236"/>
    <path d="M310 250 h44 a26 26 0 0 1 26 26 v66 a30 30 0 0 0 30 30 a30 30 0 0 0 30 -30 V214 l-46 -46"/>
  </g>
  <circle cx="420" cy="180" r="14" fill="#ffffff"/>
</svg>
